<svg width="30" height="30" viewBox="0 0 30 30" fill="none" xmlns="http://www.w3.org/2000/svg">
<g clip-path="url(#clip0_20_267)">
<path d="M10.4508 0.986424C7.45329 2.02627 4.86828 3.99994 3.07542 6.61752C1.28256 9.23511 0.376358 12.3586 0.489915 15.5293C0.603472 18.7 1.7308 21.7507 3.70632 24.2333C5.68184 26.7159 8.40142 28.4996 11.4656 29.3224C13.9498 29.9634 16.5525 29.9915 19.05 29.4044C21.3124 28.8962 23.4041 27.8092 25.1203 26.2497C26.9064 24.5771 28.2029 22.4493 28.8703 20.095C29.5955 17.5348 29.7246 14.8425 29.2476 12.2247H15.2976V18.0114H23.3765C23.2151 18.9344 22.8691 19.8152 22.3592 20.6013C21.8494 21.3874 21.1862 22.0626 20.4093 22.5864C19.4229 23.2392 18.3108 23.6783 17.1445 23.8755C15.9748 24.093 14.7751 24.093 13.6054 23.8755C12.4199 23.6306 11.2983 23.1413 10.3125 22.4388C8.72845 21.3175 7.53906 19.7245 6.91403 17.8872C6.27862 16.0154 6.27862 13.9863 6.91403 12.1145C7.35894 10.8026 8.09443 9.60799 9.0656 8.62002C10.177 7.46864 11.584 6.64564 13.1324 6.24129C14.6807 5.83695 16.3105 5.86689 17.8429 6.32783C19.0401 6.69515 20.1349 7.33723 21.0398 8.20283C21.9508 7.29658 22.8601 6.38799 23.7679 5.47705C24.2367 4.98721 24.7476 4.5208 25.2093 4.01924C23.8278 2.73373 22.2062 1.73339 20.4375 1.07549C17.2165 -0.0940682 13.6921 -0.125499 10.4508 0.986424Z" fill="white"/>
<path d="M10.4508 0.986587C13.6918 -0.126092 17.2162 -0.0954888 20.4375 1.07331C22.2065 1.73568 23.8274 2.74084 25.207 4.03112C24.7383 4.53268 24.2437 5.00143 23.7656 5.48893C22.8562 6.39674 21.9476 7.30143 21.0398 8.20299C20.1349 7.3374 19.0401 6.69531 17.8429 6.32799C16.311 5.86543 14.6813 5.83376 13.1325 6.23645C11.5838 6.63914 10.1759 7.46064 9.06326 8.61081C8.09208 9.59878 7.3566 10.7933 6.91169 12.1053L2.0531 8.34362C3.79218 4.89493 6.80329 2.25696 10.4508 0.986587Z" fill="#E33629"/>
<path d="M0.764068 12.0703C1.02502 10.776 1.45858 9.52264 2.05313 8.34375L6.91172 12.1148C6.27631 13.9866 6.27631 16.0157 6.91172 17.8875C5.29297 19.1375 3.67344 20.3938 2.05313 21.6563C0.565202 18.6945 0.11141 15.3199 0.764068 12.0703Z" fill="#F8BD00"/>
<path d="M15.2977 12.2227H29.2477C29.7246 14.8405 29.5955 17.5328 28.8703 20.093C28.2029 22.4472 26.9065 24.575 25.1203 26.2477C23.5524 25.0242 21.9774 23.8102 20.4094 22.5867C21.1868 22.0624 21.8503 21.3865 22.3601 20.5995C22.87 19.8126 23.2157 18.9308 23.3766 18.007H15.2977C15.2953 16.0805 15.2977 14.1516 15.2977 12.2227Z" fill="#587DBD"/>
<path d="M2.05078 21.6564C3.67109 20.4064 5.29062 19.1502 6.90937 17.8877C7.53564 19.7257 8.72673 21.3187 10.3125 22.4393C11.3014 23.1386 12.4254 23.6239 13.6125 23.8643C14.7822 24.0818 15.9819 24.0818 17.1516 23.8643C18.3179 23.6671 19.43 23.228 20.4164 22.5752C21.9844 23.7986 23.5594 25.0127 25.1273 26.2361C23.4115 27.7964 21.3197 28.8843 19.057 29.3932C16.5596 29.9803 13.9569 29.9521 11.4727 29.3111C9.50789 28.7865 7.67268 27.8617 6.08203 26.5947C4.39858 25.2579 3.02352 23.5734 2.05078 21.6564Z" fill="#319F43"/>
</g>
<defs>
<clipPath id="clip0_20_267">
<rect width="30" height="30" fill="white"/>
</clipPath>
</defs>
</svg>
