<svg width="50" height="50" viewBox="0 0 50 50" fill="none" xmlns="http://www.w3.org/2000/svg">
<rect x="1.5" y="2.5" width="47" height="47" rx="4.5" stroke="#D9D9D9"/>
<path d="M41.2313 33.3559C40.9527 35.4732 39.9129 37.4166 38.3061 38.8232C36.6994 40.2299 34.6355 41.0035 32.5 40.9997C20.0938 40.9997 10 30.9059 10 18.4997C9.99619 16.3642 10.7698 14.3003 12.1765 12.6936C13.5831 11.0868 15.5265 10.047 17.6438 9.76843C18.1792 9.70306 18.7213 9.81259 19.1894 10.0807C19.6574 10.3488 20.0262 10.761 20.2406 11.2559L23.5406 18.6231V18.6419C23.7048 19.0207 23.7727 19.4343 23.738 19.8457C23.7034 20.2572 23.5674 20.6536 23.3422 20.9997C23.3141 21.0419 23.2844 21.0809 23.2531 21.12L20 24.9762C21.1703 27.3544 23.6578 29.82 26.0672 30.9934L29.8703 27.7575C29.9077 27.7261 29.9468 27.6969 29.9875 27.67C30.3333 27.4394 30.7311 27.2986 31.145 27.2604C31.5588 27.2222 31.9757 27.2878 32.3578 27.4512L32.3781 27.4606L39.7391 30.7591C40.2348 30.9728 40.6481 31.3412 40.9171 31.8093C41.1861 32.2774 41.2963 32.82 41.2313 33.3559Z" fill="#D9D9D9"/>
</svg>
