<svg width="48" height="48" viewBox="0 0 48 48" fill="none" xmlns="http://www.w3.org/2000/svg">
<rect x="0.5" y="0.5" width="47" height="47" rx="4.5" stroke="#D9D9D9"/>
<path d="M23.9999 23.1663C22.8949 23.1663 21.835 22.7274 21.0536 21.946C20.2722 21.1646 19.8333 20.1047 19.8333 18.9997C19.8333 17.8946 20.2722 16.8348 21.0536 16.0534C21.835 15.272 22.8949 14.833 23.9999 14.833C25.105 14.833 26.1648 15.272 26.9462 16.0534C27.7276 16.8348 28.1666 17.8946 28.1666 18.9997C28.1666 19.5468 28.0588 20.0887 27.8494 20.5942C27.64 21.0997 27.3331 21.559 26.9462 21.946C26.5593 22.3329 26.1 22.6398 25.5944 22.8492C25.0889 23.0586 24.5471 23.1663 23.9999 23.1663ZM23.9999 7.33301C20.9057 7.33301 17.9383 8.56217 15.7503 10.7501C13.5624 12.938 12.3333 15.9055 12.3333 18.9997C12.3333 27.7497 23.9999 40.6663 23.9999 40.6663C23.9999 40.6663 35.6666 27.7497 35.6666 18.9997C35.6666 15.9055 34.4374 12.938 32.2495 10.7501C30.0616 8.56217 27.0941 7.33301 23.9999 7.33301Z" fill="#D9D9D9"/>
</svg>
