<svg width="48" height="49" viewBox="0 0 48 49" fill="none" xmlns="http://www.w3.org/2000/svg">
<path d="M8.33335 36.167V32.8337H41.6667V36.167H8.33335ZM10.25 26.0837L8.08335 24.8337L9.50002 22.3337H6.66669V19.8337H9.50002L8.08335 17.417L10.25 16.167L11.6667 18.5837L13.0834 16.167L15.25 17.417L13.8334 19.8337H16.6667V22.3337H13.8334L15.25 24.8337L13.0834 26.0837L11.6667 23.5837L10.25 26.0837ZM23.5834 26.0837L21.4167 24.8337L22.8334 22.3337H20V19.8337H22.8334L21.4167 17.417L23.5834 16.167L25 18.5837L26.4167 16.167L28.5834 17.417L27.1667 19.8337H30V22.3337H27.1667L28.5834 24.8337L26.4167 26.0837L25 23.5837L23.5834 26.0837ZM36.9167 26.0837L34.75 24.8337L36.1667 22.3337H33.3334V19.8337H36.1667L34.75 17.417L36.9167 16.167L38.3334 18.5837L39.75 16.167L41.9167 17.417L40.5 19.8337H43.3334V22.3337H40.5L41.9167 24.8337L39.75 26.0837L38.3334 23.5837L36.9167 26.0837Z" fill="#D9D9D9"/>
<rect x="0.5" y="1" width="47" height="47" rx="4.5" stroke="#D9D9D9"/>
</svg>
