<svg width="96" height="90" viewBox="0 0 96 90" fill="none" xmlns="http://www.w3.org/2000/svg">
<g clip-path="url(#clip0_205_430)">
<path d="M88.625 82.5003C87.5579 82.4973 86.4998 82.3047 85.5 81.9315V81.9128C84.0358 81.2928 82.7124 80.3825 81.6097 79.2368C80.5071 78.0912 79.648 76.734 79.0844 75.2472C78.8871 74.6209 78.492 74.0756 77.9584 73.693C77.4248 73.3104 76.7814 73.1112 76.125 73.1253C75.4697 73.1284 74.8316 73.3361 74.3 73.7193C73.7683 74.1024 73.3696 74.6421 73.1594 75.2628C72.4674 77.2789 71.1913 79.0436 69.4935 80.3324C67.7957 81.6212 65.7529 82.3758 63.625 82.5003C61.4944 82.375 59.4492 81.6183 57.7502 80.3266C56.0511 79.0349 54.775 77.2667 54.0844 75.2472C53.8788 74.626 53.4817 74.086 52.9499 73.7047C52.4182 73.3235 51.7793 73.1206 51.125 73.1253C50.4697 73.1284 49.8316 73.3361 49.3 73.7193C48.7683 74.1024 48.3696 74.6421 48.1594 75.2628C47.4674 77.2789 46.1913 79.0436 44.4935 80.3324C42.7957 81.6212 40.7529 82.3758 38.625 82.5003C36.4944 82.375 34.4492 81.6183 32.7502 80.3266C31.0511 79.0349 29.775 77.2667 29.0844 75.2472C28.8744 74.627 28.4749 74.0885 27.9423 73.7077C27.4097 73.3268 26.771 73.1228 26.1163 73.1246C25.4615 73.1263 24.8239 73.3336 24.2933 73.7173C23.7628 74.1009 23.3661 74.6416 23.1594 75.2628C22.4674 77.2789 21.1913 79.0436 19.4935 80.3324C17.7957 81.6212 15.7529 82.3758 13.625 82.5003H4.25V88.7503H13.625C16.0502 88.7718 18.4461 88.2206 20.6182 87.1417C22.7902 86.0627 24.6769 84.4864 26.125 82.5409C27.5881 84.4703 29.4779 86.0348 31.6465 87.112C33.8151 88.1891 36.2036 88.7496 38.625 88.7496C41.0464 88.7496 43.4349 88.1891 45.6035 87.112C47.7721 86.0348 49.6619 84.4703 51.125 82.5409C52.5881 84.4703 54.4779 86.0348 56.6465 87.112C58.8151 88.1891 61.2036 88.7496 63.625 88.7496C66.0464 88.7496 68.4349 88.1891 70.6035 87.112C72.7721 86.0348 74.6619 84.4703 76.125 82.5409C77.8651 84.7897 80.1706 86.5366 82.8063 87.6034C84.6511 88.3662 86.6287 88.756 88.625 88.7503H91.75V82.5003H88.625ZM85.5 37.594L90.9906 41.8753L94.875 36.9628L49.9125 1.91905C49.358 1.48673 48.675 1.25195 47.9719 1.25195C47.2688 1.25195 46.5858 1.48673 46.0312 1.91905L1.125 36.9347L5.00938 41.8472L10.5 37.5659V53.7784C9.92148 55.1818 9.07157 56.4571 7.99905 57.5312C6.92652 58.6054 5.65248 59.4572 4.25 60.0378V66.5503C7.98877 65.7996 11.3235 63.7065 13.625 60.6659C15.0881 62.5953 16.9779 64.1598 19.1465 65.237C21.3151 66.3141 23.7036 66.8746 26.125 66.8746C28.5464 66.8746 30.9349 66.3141 33.1035 65.237C35.2721 64.1598 37.1619 62.5953 38.625 60.6659C40.0881 62.5953 41.9779 64.1598 44.1465 65.237C46.3151 66.3141 48.7036 66.8746 51.125 66.8746C53.5464 66.8746 55.9349 66.3141 58.1035 65.237C60.2721 64.1598 62.1619 62.5953 63.625 60.6659C65.0731 62.6114 66.9598 64.1877 69.1318 65.2667C71.3039 66.3456 73.6998 66.8968 76.125 66.8753H91.75V60.6253H85.5V37.594ZM66.5906 53.3847C66.3839 52.7634 65.9872 52.2228 65.4567 51.8392C64.9261 51.4555 64.2885 51.2482 63.6337 51.2464C62.979 51.2447 62.3403 51.4487 61.8077 51.8295C61.2751 52.2104 60.8756 52.7489 60.6656 53.3691C59.9755 55.3891 58.6996 57.158 57.0005 58.4503C55.3014 59.7426 53.256 60.4998 51.125 60.6253C48.9971 60.5008 46.9543 59.7462 45.2565 58.4574C43.5587 57.1686 42.2826 55.4039 41.5906 53.3878C41.3804 52.7671 40.9817 52.2274 40.45 51.8443C39.9184 51.4611 39.2803 51.2534 38.625 51.2503C37.9707 51.2456 37.3318 51.4485 36.8001 51.8297C36.2683 52.211 35.8712 52.751 35.6656 53.3722C34.975 55.3917 33.6989 57.1599 31.9998 58.4516C30.3008 59.7433 28.2556 60.5 26.125 60.6253C24.0626 60.5297 22.0738 59.83 20.4059 58.6133C18.7379 57.3965 17.4645 55.7163 16.7438 53.7816L16.75 32.694L47.9719 8.3503L79.25 32.7253L79.2562 60.6253H76.125C73.9971 60.5008 71.9543 59.7462 70.2565 58.4574C68.5587 57.1686 67.2826 55.4008 66.5906 53.3847Z" fill="#1D2834" stroke="#1D2834"/>
</g>
<defs>
<clipPath id="clip0_205_430">
<rect width="96" height="90" fill="white"/>
</clipPath>
</defs>
</svg>
