<svg width="25" height="25" viewBox="0 0 25 25" fill="none" xmlns="http://www.w3.org/2000/svg">
<g clip-path="url(#clip0_98_1647)">
<path fill-rule="evenodd" clip-rule="evenodd" d="M8.50315 5.46875H19.5313C20.1529 5.46875 20.749 5.71568 21.1886 6.15522C21.6281 6.59476 21.875 7.1909 21.875 7.8125V17.1875C21.875 17.8091 21.6281 18.4052 21.1886 18.8448C20.749 19.2843 20.1529 19.5312 19.5313 19.5312H8.50315C8.15174 19.5312 7.80483 19.4521 7.48812 19.2998C7.17141 19.1475 6.89299 18.926 6.67347 18.6516L2.80628 13.8187C2.50655 13.4446 2.34322 12.9794 2.34322 12.5C2.34322 12.0206 2.50655 11.5554 2.80628 11.1813L6.67347 6.34844C6.89266 6.07443 7.17057 5.85313 7.48671 5.70088C7.80285 5.54862 8.14914 5.4693 8.50003 5.46875H8.50315ZM4.84222 4.88437C5.28142 4.33533 5.83851 3.89212 6.47223 3.58757C7.10594 3.28302 7.80005 3.12492 8.50315 3.125H19.5313C20.7745 3.125 21.9668 3.61886 22.8458 4.49794C23.7249 5.37701 24.2188 6.5693 24.2188 7.8125V17.1875C24.2188 18.4307 23.7249 19.623 22.8458 20.5021C21.9668 21.3811 20.7745 21.875 19.5313 21.875H8.50315C7.80005 21.8751 7.10594 21.717 6.47223 21.4124C5.83851 21.1079 5.28142 20.6647 4.84222 20.1156L0.976593 15.2828C0.34443 14.4931 0 13.5116 0 12.5C0 11.4884 0.34443 10.5069 0.976593 9.71719L4.84222 4.88437ZM11.375 8.54687C11.1529 8.33987 10.8591 8.22718 10.5555 8.23254C10.2519 8.2379 9.9622 8.36088 9.7475 8.57559C9.53279 8.7903 9.4098 9.07996 9.40444 9.38356C9.39909 9.68715 9.51178 9.98098 9.71878 10.2031L12.0157 12.5L9.71878 14.7969C9.60364 14.9042 9.5113 15.0335 9.44725 15.1773C9.3832 15.321 9.34876 15.4762 9.34598 15.6336C9.3432 15.7909 9.37215 15.9472 9.43109 16.0931C9.49003 16.239 9.57775 16.3716 9.68903 16.4829C9.80031 16.5942 9.93286 16.6819 10.0788 16.7408C10.2247 16.7998 10.381 16.8287 10.5383 16.8259C10.6957 16.8231 10.8509 16.7887 10.9946 16.7247C11.1384 16.6606 11.2677 16.5683 11.375 16.4531L13.6719 14.1563L15.9688 16.4531C16.0761 16.5683 16.2054 16.6606 16.3492 16.7247C16.4929 16.7887 16.6481 16.8231 16.8055 16.8259C16.9628 16.8287 17.1191 16.7998 17.265 16.7408C17.4109 16.6819 17.5435 16.5942 17.6548 16.4829C17.7661 16.3716 17.8538 16.239 17.9127 16.0931C17.9717 15.9472 18.0006 15.7909 17.9978 15.6336C17.9951 15.4762 17.9606 15.321 17.8966 15.1773C17.8325 15.0335 17.7402 14.9042 17.625 14.7969L15.3282 12.5L17.625 10.2031C17.832 9.98098 17.9447 9.68715 17.9394 9.38356C17.934 9.07996 17.811 8.7903 17.5963 8.57559C17.3816 8.36088 17.0919 8.2379 16.7883 8.23254C16.4847 8.22718 16.1909 8.33987 15.9688 8.54687L13.6719 10.8438L11.375 8.54687Z" fill="#333333"/>
</g>
<defs>
<clipPath id="clip0_98_1647">
<rect width="25" height="25" fill="white"/>
</clipPath>
</defs>
</svg>
