<svg width="48" height="48" viewBox="0 0 48 48" fill="none" xmlns="http://www.w3.org/2000/svg">
<rect x="0.5" y="0.5" width="47" height="47" rx="4.5" stroke="#D9D9D9"/>
<g clip-path="url(#clip0_185_435)">
<path d="M33.5 21V31M17.5 21V31M14.5 21V31M30.5 21V31M14 33H34M12 35.5H36M24 23H23C22.7348 23 22.4804 23.1054 22.2929 23.2929C22.1054 23.4804 22 23.7348 22 24V24.375C22 24.5914 22.0702 24.8019 22.2 24.975C22.3298 25.1481 22.5123 25.2744 22.72 25.335L25.28 26.082C25.4877 26.1426 25.6702 26.2689 25.8 26.442C25.9298 26.6151 26 26.8256 26 27.042V28C26 28.2652 25.8946 28.5196 25.7071 28.7071C25.5196 28.8946 25.2652 29 25 29H24M24 23H25C25.2652 23 25.5196 23.1054 25.7071 23.2929C25.8946 23.4804 26 23.7348 26 24V24.5M24 23V21M24 29H23C22.7348 29 22.4804 28.8946 22.2929 28.7071C22.1054 28.5196 22 28.2652 22 28V27.5M24 29V31M35.5 18.25V19H12.5V18.25C17.5 16.5 20.5 15 23.75 12.5H24.25C27.5 15 30.5 16.5 35.5 18.25Z" stroke="#333333"/>
</g>
<defs>
<clipPath id="clip0_185_435">
<rect width="24" height="24" fill="white" transform="translate(12 12)"/>
</clipPath>
</defs>
</svg>
