<svg width="45" height="45" viewBox="0 0 45 45" fill="none" xmlns="http://www.w3.org/2000/svg">
<path d="M22.5525 32.3062C22.9675 32.3062 23.3175 32.1638 23.6025 31.8788C23.8863 31.5913 24.0281 31.2412 24.0281 30.8287C24.0281 30.4137 23.885 30.0637 23.5988 29.7787C23.3125 29.4937 22.9625 29.3512 22.5487 29.3512C22.1338 29.3512 21.7837 29.4944 21.4987 29.7806C21.2137 30.0669 21.0712 30.4169 21.0712 30.8306C21.0712 31.2456 21.215 31.5956 21.5025 31.8806C21.7875 32.1656 22.1375 32.3081 22.5525 32.3081M21.585 26.0981H23.3944C23.4419 25.2831 23.595 24.6206 23.8538 24.1106C24.1125 23.6019 24.6444 22.9519 25.4494 22.1606C26.2869 21.3244 26.9094 20.575 27.3169 19.9125C27.7256 19.25 27.93 18.4838 27.93 17.6138C27.93 16.1363 27.4112 14.9588 26.3738 14.0813C25.335 13.2038 24.1063 12.765 22.6875 12.765C21.3388 12.765 20.1937 13.1312 19.2525 13.8638C18.3112 14.5975 17.6219 15.44 17.1844 16.3912L18.9094 17.1056C19.2094 16.4231 19.6388 15.82 20.1975 15.2963C20.7563 14.7712 21.5625 14.5087 22.6163 14.5087C23.8325 14.5087 24.72 14.8425 25.2788 15.51C25.84 16.1775 26.1206 16.9113 26.1206 17.7113C26.1206 18.3612 25.945 18.9412 25.5938 19.4512C25.2437 19.9625 24.7875 20.4762 24.225 20.9925C23.1375 21.995 22.425 22.845 22.0875 23.5425C21.7525 24.2388 21.585 25.0906 21.585 26.0981ZM22.5056 39.375C20.1731 39.375 17.9794 38.9325 15.9244 38.0475C13.8706 37.1612 12.0837 35.9587 10.5637 34.44C9.04375 32.9225 7.84063 31.1375 6.95438 29.085C6.06813 27.0325 5.625 24.8394 5.625 22.5056C5.625 20.1731 6.0675 17.9794 6.9525 15.9244C7.83875 13.8706 9.04125 12.0837 10.56 10.5637C12.0775 9.04375 13.8625 7.84063 15.915 6.95438C17.9675 6.06813 20.1606 5.625 22.4944 5.625C24.8269 5.625 27.0206 6.0675 29.0756 6.9525C31.1294 7.83875 32.9162 9.04125 34.4362 10.56C35.9562 12.0775 37.1594 13.8625 38.0456 15.915C38.9319 17.9675 39.375 20.1606 39.375 22.4944C39.375 24.8269 38.9325 27.0206 38.0475 29.0756C37.1612 31.1294 35.9587 32.9162 34.44 34.4362C32.9225 35.9562 31.1375 37.1594 29.085 38.0456C27.0325 38.9319 24.8394 39.375 22.5056 39.375ZM22.5 37.5C26.6875 37.5 30.2344 36.0469 33.1406 33.1406C36.0469 30.2344 37.5 26.6875 37.5 22.5C37.5 18.3125 36.0469 14.7656 33.1406 11.8594C30.2344 8.95312 26.6875 7.5 22.5 7.5C18.3125 7.5 14.7656 8.95312 11.8594 11.8594C8.95312 14.7656 7.5 18.3125 7.5 22.5C7.5 26.6875 8.95312 30.2344 11.8594 33.1406C14.7656 36.0469 18.3125 37.5 22.5 37.5Z" fill="#333333"/>
</svg>
