<svg width="60" height="60" viewBox="0 0 60 60" fill="none" xmlns="http://www.w3.org/2000/svg">
<path d="M0 6.28272C0 2.81287 2.17513 0 4.8583 0H55.1417C57.8249 0 60 2.81287 60 6.28272V53.7173C60 57.1871 57.8249 60 55.1417 60H4.8583C2.17513 60 0 57.1871 0 53.7173V6.28272Z" fill="#4F7796"/>
<path d="M40.0626 14.7579C40.0626 14.7579 23.9304 1.8417 6.43652 16.2721C23.2437 -2.89391 40.0626 14.7579 40.0626 14.7579Z" fill="#F5F7FA"/>
<path d="M20.4414 16.1594C20.4414 16.1594 38.2646 24.5862 52.9038 5.90918C39.713 29.0397 20.4414 16.1594 20.4414 16.1594Z" fill="#F5F7FA"/>
<path d="M52.2415 32.3933C51.3764 31.8514 50.6416 31.0953 50.6416 29.7677C50.6416 28.2754 51.5807 26.1807 54.3568 26.1807C54.6699 26.1807 56.2146 26.469 56.3813 26.469C56.9033 26.5476 56.9033 26.8352 56.9033 27.2537L56.8202 28.7993C56.8202 28.9034 56.7781 29.2179 56.5693 29.2179C56.4233 29.2179 56.319 29.1655 56.1937 28.6683C56.068 28.1704 55.505 26.2076 54.1063 26.2076C53.2087 26.2076 52.4364 27.4119 52.4364 28.354C52.4364 29.4016 52.8956 29.6367 55.0037 30.7368C55.3007 30.901 55.7796 31.1522 56.2371 31.5537C54.8965 31.8252 53.5815 32.1869 52.2415 32.3933Z" fill="#F5F7FA"/>
<path d="M35.285 28.2493V32.4167C34.6049 32.2985 33.9329 32.1214 33.2599 31.9481V28.1183C33.2599 27.7776 33.0932 27.621 32.7799 27.6466C32.6133 27.6466 32.4668 27.6728 32.3 27.6728C32.1957 27.6728 31.9453 27.6728 31.9453 27.3853C31.9453 27.2114 31.997 27.1201 32.0892 27.0382C32.2133 26.9947 32.3082 27.0221 32.3903 27.0184C33.6937 26.9635 34.7513 25.6927 34.7513 24.0571C34.7502 23.8813 34.8187 23.7483 35.0224 23.7471C35.2291 23.7458 35.285 23.8768 35.285 24.2955V26.0755C35.285 26.5735 35.1882 27.5099 35.6251 27.46C36.6797 27.3405 37.0871 26.3152 37.6228 26.3152C37.79 26.3152 37.936 26.6782 37.8939 27.1492C37.8524 27.6209 37.79 27.6995 37.5184 27.6995C37.1635 27.6995 36.6831 27.6465 35.6812 27.6465C35.3265 27.6465 35.285 27.6995 35.285 28.2493Z" fill="#F5F7FA"/>
<path d="M27.1995 26.4156V27.7214C27.1995 27.878 27.1995 28.0871 27.3246 28.0659C27.3874 28.0659 27.4919 27.9087 27.5122 27.8562C27.5542 27.7776 28.5769 26.2851 29.7876 26.2851C30.5391 26.2851 31.2906 26.8085 31.2906 27.8562C31.2906 28.93 30.5391 29.3487 30.0171 29.3487C29.558 29.3487 29.2656 29.139 28.932 28.6679C28.5767 28.17 28.5251 27.4925 28.0675 27.527C27.2718 27.5877 27.2617 28.5107 27.2617 30.6839V31.7468C26.5857 31.9065 25.9137 32.0964 25.2372 32.2517V30.6212C25.2372 28.9754 24.9661 28.923 24.1725 28.8705C24.1102 28.8705 23.9014 28.8705 23.9014 28.5835C23.9014 28.4002 24.016 28.2192 24.2287 28.1828C24.4026 28.1643 24.4375 28.17 24.4375 28.17C25.444 28.17 26.3035 27.3793 26.6431 26.2667C26.7409 25.9649 26.9188 25.9707 26.9699 25.9707C27.1786 25.9707 27.1995 26.1797 27.1995 26.4156Z" fill="#F5F7FA"/>
<path d="M20.9009 32.2361C20.8761 32.0297 20.8462 31.82 20.8102 31.6092C20.4747 29.6297 19.0421 25.8304 16.8169 26.4242C15.4937 26.777 14.6671 28.6363 14.9479 31.5566C14.281 31.6754 13.6222 31.8501 12.9629 32.0194C13.1104 29.5163 14.4964 26.9719 16.9887 26.3079C19.3164 25.6873 22.2343 26.9169 22.8896 30.784C22.9905 31.3784 23.0275 31.9715 23.0046 32.55C22.2925 32.5251 21.5941 32.3978 20.9009 32.2361Z" fill="#F5F7FA"/>
<path d="M48.9559 30.7849C49.0512 31.3479 49.0892 31.9103 49.074 32.4601C48.3539 32.3533 47.6443 32.1718 46.9348 31.9891C46.9177 31.8631 46.8979 31.7373 46.8766 31.61C46.5411 29.6306 45.108 25.8313 42.8832 26.4251C41.5296 26.7856 40.6959 28.7223 41.0349 31.7577C40.3614 31.9188 39.6926 32.1073 39.0186 32.2607C39.0885 29.6817 40.4827 26.9946 43.055 26.3089C45.3822 25.6882 48.3007 26.9179 48.9559 30.7849Z" fill="#F5F7FA"/>
<path d="M3.62894 31.5224V24.5836C3.62894 23.5105 3.62894 22.803 2.56463 22.725C2.12637 22.6724 1.83398 22.6724 1.83398 22.28C1.83398 21.9131 1.91756 21.9131 2.60629 21.9131C2.91944 21.9131 4.44291 22.018 4.77733 22.018C5.27802 22.018 7.67802 21.9131 8.22087 21.9131C11.6649 21.9131 12.5832 24.6884 12.5832 26.547C12.5832 29.741 10.3083 31.1816 8.59695 31.1816C8.07499 31.1816 7.6366 31.0768 6.75983 30.6837C6.63472 30.632 6.13402 30.4216 6.04983 30.4216C5.86229 30.4216 5.86229 30.5526 5.86229 30.8933V32.0156C5.12089 31.849 4.379 31.6707 3.62894 31.5224ZM5.86229 24.2666V29.4834C5.86229 30.0178 5.86229 30.1436 6.11264 30.3003C6.46733 30.5835 7.07298 30.6461 7.51137 30.6461C8.63848 30.6461 10.2246 29.5448 10.2246 26.4666C10.2246 23.7015 8.84717 22.018 7.17745 22.018C5.96675 22.018 5.86229 22.7275 5.86229 24.2666Z" fill="#F5F7FA"/>
<path d="M51.0008 34.37C51.158 34.4377 51.2446 34.6703 51.3308 35.082C51.4351 35.553 52.0408 38.4459 53.7309 38.4459C54.67 38.4459 55.7555 37.0455 55.7555 35.684C55.7555 34.7867 55.354 34.2177 54.6811 33.7365C53.4613 34.0209 52.2364 34.29 51.0008 34.37ZM15.2368 33.3486C15.9448 36.4908 17.5411 38.6524 19.033 38.2547C20.1383 37.9594 20.8964 36.3091 20.9805 34.0951C19.4917 33.7551 18.0276 33.2463 16.4941 33.2463C16.0704 33.2463 15.6518 33.2853 15.2368 33.3486ZM41.3442 33.5255C42.0714 36.5712 43.6359 38.6446 45.0994 38.2547C46.2437 37.9493 47.016 36.1915 47.0535 33.8598C45.8899 33.5602 44.7289 33.2463 43.5254 33.2463C42.7861 33.2463 42.0624 33.3651 41.3442 33.5255ZM48.8193 34.2593C48.2988 36.2439 47.0142 37.833 45.1761 38.3232C42.1618 39.1265 39.8341 36.7847 39.1967 34.0586C38.3979 34.2472 37.5932 34.3942 36.7676 34.3942C36.2669 34.3942 35.7744 34.3399 35.2858 34.2554V34.637C35.2858 35.815 35.4109 37.0192 36.496 37.0192C36.8092 37.0192 37.1017 36.9406 37.8318 36.3646C37.8948 36.3122 37.9991 36.2598 38.0619 36.2598C38.1657 36.2598 38.2287 36.3908 38.2287 36.4956C38.2287 36.8887 36.8929 38.4854 35.3689 38.4854C34.2838 38.4854 33.2612 37.595 33.2612 35.6315V33.7875C32.1898 33.512 31.1181 33.2461 30.0097 33.2461C29.0757 33.2461 28.1671 33.4354 27.2625 33.6596V35.6622C27.2625 36.7328 27.2625 37.4385 28.3272 37.5171C28.7863 37.5426 29.0782 37.5695 29.0782 37.9619C29.0782 38.3282 28.8071 38.3282 28.6398 38.3282C28.285 38.3282 26.595 38.224 26.2189 38.224C25.9056 38.224 24.3823 38.3282 24.0484 38.3282C23.9024 38.3282 23.6937 38.3282 23.6937 37.9881C23.6937 37.7522 23.8397 37.6474 24.3195 37.5695C25.2383 37.4121 25.2383 37.1252 25.2383 35.6622V34.1583C24.5846 34.2964 23.9252 34.3942 23.2517 34.3942C23.0739 34.3942 22.897 34.3872 22.7211 34.3744C22.1818 36.3054 20.9114 37.8425 19.1088 38.3232C16.0109 39.1496 13.6381 36.6511 13.0802 33.8297C11.9795 34.1135 10.8773 34.3942 9.73606 34.3942C8.41188 34.3942 7.13628 34.1488 5.86229 33.865V35.6316C5.86229 36.731 5.86229 37.4386 7.01018 37.5172C7.46933 37.5428 7.76122 37.5696 7.76122 37.9621C7.76122 38.3283 7.4901 38.3283 7.32283 38.3283C6.61333 38.3283 5.48621 38.2242 4.77683 38.2242C4.42202 38.2242 2.66909 38.3283 2.27237 38.3283C2.1051 38.3283 1.83398 38.3283 1.83398 37.9359C1.83398 37.5696 2.12637 37.5428 2.56475 37.5172C3.62907 37.4117 3.62907 36.731 3.62907 35.658V33.3691L3.63006 32.4436C5.6698 32.8455 7.64575 33.4758 9.73618 33.4758C12.0405 33.4758 14.1851 32.3285 16.494 32.3285C18.8028 32.3285 20.9475 33.4758 23.2517 33.4758C25.556 33.4758 27.7007 32.3285 30.0096 32.3285C32.3185 32.3285 34.4631 33.4758 36.7674 33.4758C39.0717 33.4758 41.2164 32.3285 43.5252 32.3285C45.834 32.3285 47.9787 33.4772 50.283 33.4758C52.5493 33.4752 54.6763 32.7331 56.8944 32.3184C57.0642 32.5702 57.2056 32.8507 57.3075 33.1652C57.4079 33.4919 57.4666 33.858 57.4666 34.2702C57.4666 36.2338 56.1936 38.4855 53.4387 38.4855C52.1864 38.4855 50.8922 37.8309 50.809 37.7524C50.5586 37.595 50.5586 37.3861 50.5586 36.7579L50.6002 34.8199C50.6002 34.7553 50.6143 34.4798 50.7689 34.3827C50.6072 34.3903 50.4451 34.3942 50.2829 34.3942C49.7892 34.3942 49.3017 34.3418 48.8193 34.2593Z" fill="#F5F7FA"/>
<path d="M17.044 47.0701C17.2219 47.0701 17.3445 47.0701 17.3445 46.817C17.3445 46.3402 16.9883 44.7812 15.3074 44.7812C13.7937 44.7812 12.5469 46.1292 12.5469 48.2072C12.5469 50.1586 13.6598 51.38 15.1295 51.38C16.5429 51.38 17.3223 50.1445 17.3223 49.9336C17.3223 49.892 17.2999 49.8077 17.2219 49.8077C17.1555 49.8077 17.1444 49.8217 16.9771 50.032C16.7099 50.3548 16.2534 50.5938 15.7527 50.5938C14.8841 50.5938 14.2009 49.9011 13.9206 48.8808C13.8309 48.5549 13.7823 48.1951 13.7823 47.814C13.7823 47.0835 13.8827 47.0701 14.0717 47.0701H17.044ZM14.2277 46.6347C13.9713 46.6347 13.9272 46.6347 13.9272 46.4801C13.9272 46.2557 14.2439 44.8974 15.2453 44.8974C15.4126 44.8974 16.1976 45.1327 16.1976 45.9604C16.1976 46.3254 15.9193 46.6346 15.441 46.6346H14.2277V46.6347Z" fill="#F5F7FA"/>
<path d="M26.0035 49.4151C26.0035 50.5803 25.8702 51.2359 24.8456 51.2359C23.1762 51.2359 22.1521 49.0775 22.1521 47.0283C22.1521 45.1332 23.1317 42.5631 24.8456 42.5631C26.0705 42.5631 26.5042 43.7712 26.6826 44.1923C26.7606 44.3885 26.8493 44.5151 26.9496 44.5151C27.0165 44.5151 27.0834 44.4448 27.0834 44.2627C27.0834 44.136 26.983 43.0131 26.8492 42.8444C26.7711 42.746 26.1149 42.4092 25.0795 42.4092C22.1183 42.4092 20.749 44.9083 20.749 46.9722C20.749 48.3337 21.4727 51.3805 24.5894 51.3805C24.8787 51.3805 25.9363 51.3805 26.9495 50.6646C27.2723 50.4537 27.2723 50.4116 27.2723 49.7801C27.2723 48.9799 27.2388 48.5024 27.2388 48.3618V48.2218C27.2388 47.6177 27.2611 47.3933 27.7957 47.3512C28.0958 47.323 28.2073 47.2809 28.2073 47.1262C28.2073 46.9581 28.074 46.9581 28.0294 46.9581C27.8621 46.9581 26.7933 47.0144 26.6154 47.0144C25.87 47.0144 25.5578 46.9581 25.3688 46.9581C24.9233 46.9581 24.8681 46.9581 24.8681 47.1403C24.8681 47.2809 24.9568 47.337 25.3019 47.3512C25.7919 47.3653 26.0032 47.4912 26.0032 48.1937V49.4151H26.0035Z" fill="#F5F7FA"/>
<path d="M38.4982 43.2374C38.4982 42.802 38.2312 42.4512 37.886 42.4512C37.5186 42.4512 37.2627 42.8302 37.2627 43.2233C37.2627 43.6304 37.5302 43.9814 37.886 43.9814C38.2535 43.9814 38.4982 43.6024 38.4982 43.2374Z" fill="#F5F7FA"/>
<path d="M31.2341 46.8576V46.2792C31.2341 45.7889 31.155 44.8436 30.5809 44.8436C29.9286 44.8436 29.7914 45.1306 29.7902 45.3882C29.806 45.5511 29.8648 45.7448 29.8597 45.95C29.8521 46.2907 29.7893 46.5048 29.6002 46.7042C29.3854 46.9317 28.9612 47.0858 28.6657 46.6415C28.4584 46.3303 28.4854 45.9622 28.6312 45.6578C28.8284 45.1721 29.3767 44.6555 30.857 44.7687C32.0028 44.8563 32.4188 45.8341 32.4188 46.4081V49.7094C32.4188 50.1433 32.4553 50.4937 32.7974 50.4937C32.9316 50.4937 33.0538 50.4374 33.1517 50.3536C33.286 50.2276 33.2982 50.2136 33.3589 50.2136C33.4323 50.2136 33.4689 50.2973 33.4689 50.3394C33.4689 50.6758 32.7239 51.3333 32.1868 51.3333C31.7104 51.3333 31.4783 50.9134 31.3319 50.5772C31.2219 50.3114 31.1976 50.3114 31.1607 50.3114C31.1363 50.3114 31.0755 50.3677 31.0755 50.3677C30.5621 50.8439 30.1248 51.2753 29.5755 51.2753C29.4463 51.2753 28.3496 51.3877 28.3496 49.7292C28.3496 48.1549 30.0007 47.3611 30.9286 47.3611C31.2462 47.3613 31.2341 47.1095 31.2341 46.8576ZM31.2341 48.9817V47.5978C31.2341 47.458 31.1151 47.4068 31.0542 47.4068C30.8829 47.4068 30.5256 47.5186 30.33 47.6312C29.8228 47.9692 29.4117 48.4627 29.4117 49.3236C29.4117 50.3187 30.0188 50.6569 30.2874 50.6569C31.2133 50.6569 31.2341 49.9615 31.2341 48.9817Z" fill="#F5F7FA"/>
<path d="M40.7162 48.5019C40.7162 50.0322 41.5301 51.4651 42.5689 51.3053C43.6748 51.1352 43.6697 50.282 43.8455 50.0935C44.032 49.894 44.3127 49.9821 44.255 50.3012C44.2033 50.5856 43.4542 51.38 42.2633 51.38C40.9944 51.38 39.4912 50.4392 39.4912 48.2627C39.4912 46.0026 41.1387 44.7812 42.5192 44.7812C42.6484 44.7812 43.4912 44.8689 43.9453 45.2069C44.0071 45.2529 44.0619 45.3034 44.1065 45.3597C44.142 45.4045 44.1714 45.4525 44.1927 45.5037C44.211 45.5426 44.2272 45.5841 44.2409 45.6301C44.3418 45.9619 44.3057 46.3563 44.0589 46.6176C43.7067 46.9902 43.31 46.7454 43.1295 46.4743C42.9709 46.2359 42.9385 46.0117 42.9779 45.6747C43.1031 45.1801 42.7758 44.8112 42.341 44.8514C41.4876 44.9303 40.7162 46.3115 40.7162 48.5019Z" fill="#F5F7FA"/>
<path d="M50.5896 46.8576V46.2792C50.5896 45.7889 50.5101 44.8436 49.9358 44.8436C49.2841 44.8436 49.1463 45.1306 49.1457 45.3882C49.1609 45.5511 49.2201 45.7448 49.2152 45.95C49.2075 46.2907 49.1447 46.5048 48.9557 46.7042C48.7408 46.9317 48.3162 47.0858 48.0207 46.6415C47.814 46.3303 47.8403 45.9622 47.9862 45.6578C48.1834 45.1721 48.7322 44.6555 50.212 44.7687C51.3578 44.8563 51.7739 45.8341 51.7739 46.4081V49.7094C51.7739 50.1433 51.8104 50.4937 52.1525 50.4937C52.2867 50.4937 52.4089 50.4374 52.5067 50.3536C52.6416 50.2276 52.6532 50.2136 52.7145 50.2136C52.7881 50.2136 52.8245 50.2973 52.8245 50.3394C52.8245 50.6758 52.0795 51.3333 51.5419 51.3333C51.0655 51.3333 50.8339 50.9134 50.6875 50.5772C50.577 50.3114 50.5526 50.3114 50.5161 50.3114C50.4918 50.3114 50.4305 50.3677 50.4305 50.3677C49.9177 50.8439 49.4803 51.2753 48.9305 51.2753C48.8017 51.2753 47.7051 51.3877 47.7051 49.7292C47.7051 48.1549 49.3556 47.3611 50.2841 47.3611C50.6012 47.3613 50.5896 47.1095 50.5896 46.8576ZM50.5896 48.9817V47.5978C50.5896 47.458 50.4705 47.4068 50.4092 47.4068C50.2385 47.4068 49.8807 47.5186 49.6856 47.6312C49.1782 47.9692 48.7673 48.4627 48.7673 49.3236C48.7673 50.3187 49.3744 50.6569 49.6431 50.6569C50.5683 50.6569 50.5896 49.9615 50.5896 48.9817Z" fill="#F5F7FA"/>
<path d="M46.5519 43.2374C46.5519 42.802 46.2849 42.4512 45.9397 42.4512C45.5723 42.4512 45.3164 42.8302 45.3164 43.2233C45.3164 43.6304 45.5841 43.9814 45.9397 43.9814C46.3072 43.9814 46.5519 43.6024 46.5519 43.2374Z" fill="#F5F7FA"/>
<path d="M12.4558 50.3385C12.4558 50.2963 12.4193 50.2121 12.3459 50.2121C12.2846 50.2121 12.273 50.2261 12.1381 50.3527C12.0403 50.4365 11.9181 50.4926 11.7839 50.4926C11.5021 50.4926 11.4276 50.2542 11.4104 49.9275V43.851L11.4241 42.7381L11.4621 42.0229C11.4621 41.8983 11.3973 41.7647 11.2858 41.7647C11.259 41.7647 11.1453 41.7577 11.0755 41.9322C10.8951 42.522 10.4375 42.9413 9.90128 42.9413L9.78111 42.9483C9.64784 42.9906 9.61594 43.0634 9.61594 43.1605C9.61594 43.3127 9.72696 43.3127 9.76034 43.3127C10.1824 43.3402 10.3274 43.3682 10.3274 44.2408V44.9669C10.3245 45.0206 10.295 45.0744 10.2524 45.0744C10.2301 45.0744 10.1637 45.0469 10.1191 45.0187C9.92959 44.9061 9.52866 44.7795 9.17298 44.7795C7.91519 44.7795 6.47949 46.0573 6.47949 48.2329C6.47949 50.1146 7.57014 51.3776 8.82793 51.3776C9.4624 51.3776 9.84045 51.0268 10.1415 50.7181C10.1861 50.6758 10.2525 50.6197 10.297 50.6197C10.3245 50.6197 10.3513 50.6657 10.3822 50.7143C10.5318 51.0173 10.7607 51.3324 11.1733 51.3324C11.7108 51.3324 12.4558 50.6741 12.4558 50.3385ZM10.3749 46.9701V49.792C10.3749 50.0445 10.4048 50.814 9.46981 50.814C8.36804 50.814 7.65903 49.3982 7.65903 47.8124C7.65903 45.9729 8.48153 44.8774 9.24926 44.8774C10.3739 44.8776 10.3749 46.338 10.3749 46.9701Z" fill="#F5F7FA"/>
<path d="M36.3069 51.1251C36.3069 50.9991 36.2512 50.9289 35.973 50.8867C35.4941 50.8023 35.4941 50.6476 35.4941 49.8615V44.9578C35.4946 44.9578 35.4951 44.9578 35.4955 44.9578V44.3941L35.5143 42.8582L35.5523 42.143C35.5523 42.0184 35.4874 41.8848 35.3764 41.8848C35.3491 41.8848 35.2356 41.8778 35.1656 42.0523C34.9852 42.6423 34.5275 43.0614 33.9919 43.0614L33.8718 43.0684C33.7385 43.1107 33.706 43.1835 33.706 43.2806C33.706 43.4328 33.8175 43.4328 33.8504 43.4328C34.2614 43.4596 34.4069 43.5005 34.4144 44.3059V49.8755C34.4144 50.6476 34.4144 50.8023 33.9355 50.8867C33.6907 50.9289 33.6016 50.9844 33.6016 51.1111C33.6016 51.2938 33.7131 51.2938 33.8468 51.2938C34.0805 51.2938 34.2138 51.2375 34.9486 51.2375C35.5942 51.2375 35.8167 51.2938 36.1172 51.2938C36.1954 51.294 36.3069 51.294 36.3069 51.1251Z" fill="#F5F7FA"/>
<path d="M39.2427 51.1258C39.2427 50.9992 39.1874 50.9291 38.9088 50.8868C38.4303 50.8024 38.4303 50.6344 38.4303 49.8616V47.7945C38.4318 47.7945 38.4328 47.7939 38.4344 47.7939V47.23L38.4526 45.7612C38.4562 45.6814 38.4587 45.6084 38.4622 45.5331L38.4917 44.9789C38.4917 44.8542 38.4263 44.7207 38.3154 44.7207C38.2885 44.7207 38.1744 44.7143 38.1051 44.8888C37.9242 45.4787 37.4665 45.8973 36.9309 45.8973L36.8108 45.905C36.6775 45.9466 36.6456 46.0193 36.6456 46.1166C36.6456 46.2688 36.7567 46.2688 36.79 46.2688C37.1903 46.295 37.3364 46.3449 37.3504 47.092V47.2084V49.8762C37.3504 50.6484 37.3504 50.8024 36.872 50.8868C36.6267 50.9291 36.5381 50.9852 36.5381 51.1112C36.5381 51.2939 36.6491 51.2939 36.7271 51.2939C36.9161 51.2939 37.4285 51.2376 37.8958 51.2376C38.4081 51.2376 38.8865 51.2939 39.0537 51.2939C39.1317 51.2941 39.2427 51.2941 39.2427 51.1258Z" fill="#F5F7FA"/>
<path d="M47.2846 51.1258C47.2846 50.9992 47.2293 50.9291 46.9507 50.8868C46.4723 50.8024 46.4723 50.6344 46.4723 49.8616V47.7945C46.4738 47.7945 46.4748 47.7939 46.4764 47.7939V47.23L46.4946 45.7612C46.4982 45.6814 46.5006 45.6084 46.5042 45.5331L46.5337 44.9789C46.5337 44.8542 46.4687 44.7207 46.3572 44.7207C46.3304 44.7207 46.2169 44.7143 46.1469 44.8888C45.966 45.4787 45.5084 45.8973 44.9727 45.8973L44.8527 45.905C44.7194 45.9466 44.6875 46.0193 44.6875 46.1166C44.6875 46.2688 44.7985 46.2688 44.8319 46.2688C45.2322 46.295 45.3782 46.3449 45.3923 47.092V47.2084V49.8762C45.3923 50.6484 45.3923 50.8024 44.914 50.8868C44.6687 50.9291 44.5801 50.9852 44.5801 51.1112C44.5801 51.2939 44.691 51.2939 44.7691 51.2939C44.9586 51.2939 45.4705 51.2376 45.9376 51.2376C46.45 51.2376 46.9284 51.2939 47.0955 51.2939C47.1736 51.2941 47.2846 51.2941 47.2846 51.1258Z" fill="#F5F7FA"/>
</svg>
