<svg width="24" height="24" viewBox="0 0 24 24" fill="none" xmlns="http://www.w3.org/2000/svg">
<path d="M18 13.5H18.5C19.443 13.5 19.914 13.5 20.207 13.207C20.5 12.914 20.5 12.443 20.5 11.5V10.5C20.5 8.614 20.5 7.672 19.914 7.086C19.328 6.5 18.386 6.5 16.5 6.5H7.5C5.614 6.5 4.672 6.5 4.086 7.086C3.5 7.672 3.5 8.614 3.5 10.5V12.5C3.5 12.971 3.5 13.207 3.646 13.354C3.793 13.5 4.029 13.5 4.5 13.5H6" stroke="white"/>
<path d="M6.5 19.806V11.5C6.5 10.557 6.5 10.086 6.793 9.793C7.086 9.5 7.557 9.5 8.5 9.5H15.5C16.443 9.5 16.914 9.5 17.207 9.793C17.5 10.086 17.5 10.557 17.5 11.5V19.806C17.5 20.123 17.5 20.281 17.396 20.356C17.292 20.431 17.142 20.381 16.842 20.281L14.674 19.558C14.6191 19.5345 14.5606 19.5203 14.501 19.516C14.4415 19.5236 14.3837 19.5412 14.33 19.568L12.186 20.426C12.1279 20.4556 12.0649 20.4743 12 20.481C11.9351 20.4743 11.8721 20.4556 11.814 20.426L9.67 19.568C9.6166 19.5414 9.55915 19.5238 9.5 19.516C9.44004 19.52 9.3812 19.5342 9.326 19.558L7.158 20.281C6.858 20.381 6.708 20.431 6.604 20.356C6.5 20.281 6.5 20.123 6.5 19.806Z" stroke="white"/>
<path d="M9.5 13.5H13.5M9.5 16.5H14.5" stroke="white" stroke-linecap="round"/>
<path d="M17.5 6.5V6.1C17.5 4.403 17.5 3.554 16.973 3.027C16.446 2.5 15.597 2.5 13.9 2.5H10.1C8.403 2.5 7.554 2.5 7.027 3.027C6.5 3.554 6.5 4.403 6.5 6.1V6.5" stroke="white"/>
</svg>
