<svg width="15" height="15" viewBox="0 0 15 15" fill="none" xmlns="http://www.w3.org/2000/svg">
<path d="M13.1212 14.4996L8.34844 9.72692C7.96965 10.0299 7.53405 10.2698 7.04162 10.4466C6.5492 10.6234 6.02521 10.7118 5.46965 10.7118C4.09339 10.7118 2.92874 10.235 1.97571 9.28146C1.02268 8.32793 0.545915 7.16328 0.54541 5.78752C0.54541 4.41126 1.02218 3.24661 1.97571 2.29358C2.92925 1.34055 4.09389 0.863786 5.46965 0.863281C6.84592 0.863281 8.01081 1.34005 8.96435 2.29358C9.91788 3.24712 10.3944 4.41177 10.3939 5.78752C10.3939 6.34308 10.3055 6.86707 10.1287 7.35949C9.95198 7.85192 9.71208 8.28752 9.40905 8.66631L14.1818 13.439L13.1212 14.4996ZM5.46965 9.19661C6.41662 9.19661 7.22167 8.8653 7.8848 8.20267C8.54794 7.54005 8.87925 6.735 8.87874 5.78752C8.87874 4.84055 8.54743 4.03576 7.8848 3.37313C7.22218 2.7105 6.41713 2.37894 5.46965 2.37843C4.52268 2.37843 3.71789 2.71 3.05526 3.37313C2.39263 4.03626 2.06107 4.84106 2.06056 5.78752C2.06056 6.73449 2.39213 7.53954 3.05526 8.20267C3.71839 8.86581 4.52319 9.19712 5.46965 9.19661Z" fill="#333333"/>
</svg>
