<svg width="100" height="100" viewBox="0 0 100 100" fill="none" xmlns="http://www.w3.org/2000/svg">
<path d="M22.9167 29.1663C22.9167 27.5248 23.24 25.8994 23.8682 24.3828C24.4964 22.8662 25.4171 21.4882 26.5778 20.3275C27.7386 19.1668 29.1166 18.246 30.6331 17.6178C32.1497 16.9897 33.7751 16.6663 35.4167 16.6663C37.0582 16.6663 38.6836 16.9897 40.2002 17.6178C41.7168 18.246 43.0948 19.1668 44.2555 20.3275C45.4162 21.4882 46.337 22.8662 46.9652 24.3828C47.5933 25.8994 47.9167 27.5248 47.9167 29.1663C47.9167 32.4815 46.5997 35.661 44.2555 38.0052C41.9113 40.3494 38.7319 41.6663 35.4167 41.6663C32.1015 41.6663 28.922 40.3494 26.5778 38.0052C24.2336 35.661 22.9167 32.4815 22.9167 29.1663ZM35.4167 8.33301C29.8913 8.33301 24.5923 10.5279 20.6853 14.4349C16.7783 18.342 14.5833 23.641 14.5833 29.1663C14.5833 34.6917 16.7783 39.9907 20.6853 43.8977C24.5923 47.8047 29.8913 49.9997 35.4167 49.9997C40.942 49.9997 46.241 47.8047 50.1481 43.8977C54.0551 39.9907 56.25 34.6917 56.25 29.1663C56.25 23.641 54.0551 18.342 50.1481 14.4349C46.241 10.5279 40.942 8.33301 35.4167 8.33301ZM64.5833 8.33301H60.4167V16.6663H64.5833C66.2249 16.6663 67.8503 16.9897 69.3669 17.6178C70.8834 18.246 72.2614 19.1668 73.4222 20.3275C74.5829 21.4882 75.5036 22.8662 76.1318 24.3828C76.76 25.8994 77.0833 27.5248 77.0833 29.1663C77.0833 30.8079 76.76 32.4333 76.1318 33.9499C75.5036 35.4665 74.5829 36.8444 73.4222 38.0052C72.2614 39.1659 70.8834 40.0867 69.3669 40.7148C67.8503 41.343 66.2249 41.6663 64.5833 41.6663H60.4167V49.9997H64.5833C70.1087 49.9997 75.4077 47.8047 79.3147 43.8977C83.2217 39.9907 85.4167 34.6917 85.4167 29.1663C85.4167 23.641 83.2217 18.342 79.3147 14.4349C75.4077 10.5279 70.1087 8.33301 64.5833 8.33301ZM0 79.1663C0 73.641 2.19493 68.342 6.10194 64.4349C10.0089 60.5279 15.308 58.333 20.8333 58.333H50C55.5253 58.333 60.8244 60.5279 64.7314 64.4349C68.6384 68.342 70.8333 73.641 70.8333 79.1663V87.4997H62.5V79.1663C62.5 75.8511 61.183 72.6717 58.8388 70.3275C56.4946 67.9833 53.3152 66.6663 50 66.6663H20.8333C17.5181 66.6663 14.3387 67.9833 11.9945 70.3275C9.65029 72.6717 8.33333 75.8511 8.33333 79.1663V87.4997H0V83.333V79.1663ZM100 79.1663C100 76.4305 99.4611 73.7214 98.4142 71.1938C97.3672 68.6661 95.8326 66.3695 93.8981 64.4349C91.9635 62.5004 89.6669 60.9658 87.1392 59.9188C84.6116 58.8719 81.9025 58.333 79.1667 58.333H75V66.6663H79.1667C82.4819 66.6663 85.6613 67.9833 88.0055 70.3275C90.3497 72.6717 91.6667 75.8511 91.6667 79.1663V87.4997H100V83.333V79.1663Z" fill="#426787"/>
</svg>
