<svg width="50" height="50" viewBox="0 0 50 50" fill="none" xmlns="http://www.w3.org/2000/svg">
<path opacity="0.9" d="M31.7959 24.2441L41.7659 34.2141L40.3509 35.6281L30.3809 25.6581L31.7959 24.2441ZM18.2779 24.2871L19.6919 25.7011L9.79193 35.6011L8.37793 34.1911L18.2779 24.2871Z" fill="#333333"/>
<path d="M25 29.8998C23.5 29.8998 21.9 29.2998 20.8 28.0998L8.30005 15.6998L9.70005 14.2998L22.2 26.7998C23.8 28.3998 26.3 28.3998 27.9 26.7998L40.4001 14.2998L41.8 15.6998L29.2001 28.1998C28.1 29.2998 26.5 29.8998 25 29.8998Z" fill="#333333"/>
<path d="M39 38H11C9.3 38 8 36.7 8 35V15C8 13.3 9.3 12 11 12H39C40.7 12 42 13.3 42 15V35C42 36.7 40.7 38 39 38ZM11 14C10.4 14 10 14.4 10 15V35C10 35.6 10.4 36 11 36H39C39.6 36 40 35.6 40 35V15C40 14.4 39.6 14 39 14H11Z" fill="#333333"/>
</svg>
